ply
format ascii 1.0
element vertex 200
property float x
property float y
property float z
property uchar red
property uchar green
property uchar blue
property uchar alpha
property float nx
property float ny
property float nz
element face 198
property list uchar int vertex_indices
end_header
45.4519 -53.3446 9.40609 255 0 0 255 0 0 1
-54.1675 -44.7614 7.89265 0 0 255 255 0 0 1
41.2454 -59.4776 20.94 255 2 0 255 0.0675946 0.870491 0.48752
-60.2016 -42.268 16.3226 0 2 255 255 0.172238 0.971306 -0.164007
36.1367 -62.796 34.1259 255 5 0 255 0.146787 0.944304 0.294522
-66.4113 -37.2631 24.7945 0 5 255 255 0.256213 0.902758 -0.345517
30.4051 -62.8215 48.3645 255 7 0 255 0.232339 0.967959 0.0952571
-72.5253 -29.6238 32.7512 0 7 255 255 0.33328 0.794865 -0.507065
24.3851 -59.2308 62.9603 255 10 0 255 0.319146 0.942393 -0.100204
-78.2496 -19.3777 39.6034 0 10 255 255 0.399971 0.653329 -0.642794
18.4505 -51.8799 77.1547 255 12 0 255 0.402428 0.870718 -0.282668
-83.2834 -6.7126 44.7617 0 12 255 255 0.453393 0.48482 -0.747921
12.9967 -40.8194 90.1624 255 15 0 255 0.477889 0.757901 -0.444081
-87.3358 8.02204 47.6709 0 15 255 255 0.491278 0.296792 -0.818878
8.4214 -26.3006 101.212 255 17 0 255 0.541835 0.610434 -0.577742
-90.1432 24.3233 47.844 0 17 255 255 0.512042 0.097248 -0.853438
5.10426 -8.77244 109.584 255 20 0 255 0.591278 0.435978 -0.678464
-91.4865 41.5512 44.8942 0 20 255 255 0.514816 -0.105532 -0.850781
3.3868 11.1327 114.655 255 22 0 255 0.624004 0.24301 -0.742675
-91.2055 58.9532 38.5637 0 22 255 255 0.499468 -0.303278 -0.811513
3.55368 32.6213 115.925 255 25 0 255 0.638612 0.0404555 -0.768465
-89.2128 75.6968 28.7465 0 25 255 255 0.466592 -0.488031 -0.737643
5.81587 54.7708 113.056 255 28 0 255 0.634532 -0.162671 -0.755584
-85.5031 90.9069 15.5053 0 28 255 255 0.417474 -0.652434 -0.632491
10.2969 76.5682 105.893 255 30 0 255 0.612004 -0.357613 -0.705382
-80.1598 103.709 -0.919811 0 30 255 255 0.35404 -0.789995 -0.500563
17.0226 96.9548 94.48 255 33 0 255 0.572043 -0.536195 -0.620694
-73.3568 113.273 -20.1115 0 33 255 255 0.278772 -0.895333 -0.347369
25.9155 114.875 79.069 255 35 0 255 0.516369 -0.691121 -0.505683
-65.3561 118.859 -41.4835 0 35 255 255 0.194608 -0.964371 -0.179211
36.7934 129.327 60.1162 255 38 0 255 0.447315 -0.81622 -0.365642
-56.501 119.86 -64.2991 0 38 255 255 0.104829 -0.994486 -0.00293649
49.3731 139.41 38.2719 255 40 0 255 0.367725 -0.906659 -0.206755
-47.2042 115.839 -87.6966 0 40 255 255 0.0129248 -0.984603 0.174328
63.279 144.376 14.3585 255 43 0 255 0.280826 -0.959089 -0.035841
-37.9331 106.565 -110.724 0 43 255 255 -0.0775419 -0.935228 0.345451
78.0558 143.664 -10.6588 255 45 0 255 0.190095 -0.971743 0.139926
-29.1903 92.0327 -132.377 0 45 255 255 -0.163071 -0.848423 0.503573
93.1861 136.942 -35.7095 255 48 0 255 0.0991168 -0.944468 0.3133
-21.492 72.48 -151.647 0 48 255 255 -0.240367 -0.727721 0.642375
108.111 124.127 -59.6616 255 51 0 255 0.0114452 -0.878697 0.477242
-15.3449 48.3912 -167.565 0 51 255 255 -0.306464 -0.577982 0.756317
122.252 105.404 -81.3696 255 53 0 255 -0.0695347 -0.777371 0.625187
-11.2219 20.4883 -179.251 0 53 255 255 -0.358844 -0.405202 0.840858
135.04 81.2262 -99.7247 255 56 0 255 -0.140735 -0.644792 0.751291
-9.53811 -10.2875 -185.962 0 56 255 255 -0.395532 -0.216275 0.892625
145.936 52.3092 -113.706 255 58 0 255 -0.199481 -0.486439 0.850638
-10.6284 -42.8071 -187.129 0 58 255 255 -0.415173 -0.0187191 0.90955
154.458 19.6109 -122.428 255 61 0 255 -0.243605 -0.308744 0.91942
-14.7278 -75.7943 -182.398 0 61 255 255 -0.417088 0.179613 0.890941
160.208 -15.7003 -125.187 255 63 0 255 -0.271527 -0.118825 0.955067
-21.9555 -107.875 -171.655 0 63 255 255 -0.401296 0.370849 0.837516
162.886 -52.2872 -121.497 255 66 0 255 -0.282304 0.0757913 0.956326
-32.3028 -137.636 -155.048 0 66 255 255 -0.368515 0.547402 0.751364
162.314 -88.6937 -111.121 255 68 0 255 -0.275662 0.267465 0.923295
-45.6271 -163.683 -132.99 0 68 255 255 -0.320132 0.70227 0.635872
158.445 -123.403 -94.0924 255 71 0 255 -0.251998 0.448734 0.8574
-61.6511 -184.707 -106.155 0 71 255 255 -0.258153 0.82931 0.495582
151.371 -154.898 -70.7229 255 73 0 255 -0.212356 0.6126 0.761331
-79.9684 -199.545 -75.4667 0 73 255 255 -0.185117 0.923484 0.336019
141.326 -181.728 -41.6012 255 76 0 255 -0.158385 0.75279 0.638923
-100.055 -207.24 -42.0643 0 76 255 255 -0.104003 0.981051 0.163469
128.68 -202.571 -7.57924 255 79 0 255 -0.0922657 0.863984 0.494994
-121.287 -207.094 -7.26598 0 79 255 255 -0.018108 0.99972 -0.0152658
113.931 -216.292 30.2533 255 81 0 255 -0.0166247 0.942013 0.335163
-142.961 -198.707 27.4803 0 81 255 255 0.06908 0.978737 -0.193138
97.6873 -222.001 70.6048 255 84 0 255 0.0655683 0.984008 0.165616
-164.326 -182.017 60.6544 0 84 255 255 0.15402 0.91892 -0.363129
80.6486 -219.098 112.028 255 86 0 255 0.151116 0.98849 -0.00712071
-184.609 -157.31 90.7263 0 86 255 255 0.233259 0.822627 -0.518532
63.5794 -207.307 152.974 255 89 0 255 0.236719 0.955423 -0.176442
-203.05 -125.23 116.223 0 89 255 255 0.303566 0.69366 -0.65321
47.2806 -186.702 191.852 255 91 0 255 0.319098 0.886196 -0.335907
-218.934 -86.7658 135.792 0 91 255 255 0.362063 0.537122 -0.761847
32.5582 -157.714 227.091 255 94 0 255 0.395117 0.783566 -0.479486
-231.628 -43.2212 148.27 0 94 255 255 0.406336 0.359212 -0.840153
20.1906 -121.129 257.208 255 96 0 255 0.461905 0.651539 -0.601781
-240.608 3.82309 152.738 0 96 255 255 0.434532 0.166988 -0.885041
10.8966 -78.0671 280.868 255 99 0 255 0.516957 0.495214 -0.698226
-245.487 52.5674 148.57 0 99 255 255 0.445438 -0.0319222 -0.894744
5.30413 -29.9483 296.946 255 102 0 255 0.558227 0.320578 -0.765253
-246.039 101.06 135.477 0 102 255 255 0.43852 -0.229612 -0.868895
3.92208 21.5521 304.577 255 104 0 255 0.584204 0.134279 -0.800422
-242.215 147.275 113.53 0 104 255 255 0.413957 -0.418215 -0.80854
7.11613 74.5633 303.201 255 107 0 255 0.593961 -0.0566276 -0.802498
-234.154 189.196 83.1731 0 107 255 255 0.372625 -0.590216 -0.716098
15.0894 127.087 292.593 255 109 0 255 0.587189 -0.24495 -0.771497
-222.183 224.898 45.2217 0 109 255 255 0.316071 -0.73875 -0.595271
27.8691 177.071 272.888 255 112 0 255 0.564204 -0.423624 -0.708672
-206.811 252.641 0.840179 0 112 255 255 0.246448 -0.857877 -0.450899
45.3 222.492 244.584 255 114 0 255 0.525927 -0.585983 -0.616462
-188.717 270.944 -48.4917 0 114 255 255 0.166433 -0.942823 -0.288764
67.0447 261.433 208.533 255 117 0 255 0.473852 -0.725998 -0.498389
-168.726 278.663 -101.029 0 117 255 255 0.0791202 -0.990166 -0.115372
92.5914 292.163 165.924 255 119 0 255 0.409984 -0.838503 -0.358925
-147.781 275.05 -154.827 0 119 255 255 -0.0121004 -0.997983 0.0623134
121.268 313.212 118.24 255 122 0 255 0.336759 -0.919378 -0.203318
-126.91 259.801 -207.812 0 122 255 255 -0.103677 -0.965926 0.237144
152.266 323.436 67.2158 255 124 0 255 0.256954 -0.9657 -0.0373915
-107.18 233.088 -257.868 0 124 255 255 -0.19204 -0.895243 0.402071
184.662 322.068 14.7743 255 127 0 255 0.173582 -0.975842 0.132673
-89.6602 195.566 -302.922 0 127 255 255 -0.273743 -0.788727 0.550431
217.459 308.767 -37.0411 255 130 0 255 0.0897738 -0.949525 0.300571
-75.3743 148.367 -341.033 0 130 255 255 -0.3456 -0.650617 0.676209
249.614 283.635 -86.1416 255 132 0 255 0.00867043 -0.887823 0.460104
-65.2551 93.0694 -370.482 0 132 255 255 -0.404817 -0.486423 0.774284
280.085 247.233 -130.473 255 135 0 255 -0.0667025 -0.793112 0.605412
-60.1036 31.6479 -389.847 0 135 255 255 -0.449102 -0.302715 0.840637
307.864 200.569 -168.094 255 137 0 255 -0.133539 -0.668981 0.731185
-60.5497 -33.5947 -398.082 0 137 255 255 -0.47676 -0.10686 0.872514
332.023 145.073 -197.256 255 140 0 255 -0.189361 -0.520083 0.83286
-67.0201 -100.112 -394.565 0 140 255 255 -0.486763 0.0932711 0.86854
351.748 82.5561 -216.473 255 142 0 255 -0.232101 -0.351969 0.906779
-79.7129 -165.214 -379.148 0 142 255 255 -0.478793 0.289616 0.828782
366.375 15.1509 -224.588 255 145 0 255 -0.26018 -0.170868 0.950321
-98.5816 -226.17 -352.177 0 145 255 255 -0.453257 0.474254 0.754746
375.418 -54.7608 -220.824 255 147 0 255 -0.272563 0.0165352 0.961996
-123.328 -280.329 -314.494 0 147 255 255 -0.411273 0.639712 0.649325
378.596 -124.631 -204.825 255 150 0 255 -0.268794 0.203358 0.941486
-153.407 -325.227 -267.423 0 150 255 255 -0.354629 0.779278 0.516686
375.846 -191.835 -176.68 255 153 0 255 -0.249006 0.382765 0.889656
-188.039 -358.7 -212.728 0 153 255 255 -0.285709 0.887272 0.362102
367.335 -253.774 -136.934 255 155 0 255 -0.213915 0.548221 0.808513
-226.237 -378.986 -152.558 0 155 255 255 -0.207403 0.959279 0.191749
353.454 -307.967 -86.5757 255 158 0 255 -0.164794 0.69373 0.701129
-266.839 -384.811 -89.367 0 158 255 255 -0.122989 0.99233 0.0124555
334.817 -352.15 -27.0159 255 160 0 255 -0.103419 0.814048 0.571516
-308.551 -375.461 -25.825 0 160 255 255 -0.0360029 0.985031 -0.168576
312.24 -384.365 39.9556 255 163 0 255 -0.0320006 0.90487 0.424483
-350 -350.83 35.2881 0 163 255 255 0.0499052 0.937623 -0.344053
286.717 -403.045 112.227 255 165 0 255 0.0468935 0.962982 0.265454
-389.784 -311.446 91.1939 0 165 255 255 0.131118 0.851981 -0.50689
259.388 -407.075 187.434 255 168 0 255 0.130438 0.986374 0.100262
-426.534 -258.47 139.233 0 168 255 255 0.2042 0.731538 -0.650504
231.5 -395.854 263.042 255 170 0 255 0.215654 0.9743 -0.0650572
-458.97 -193.671 176.978 0 170 255 255 0.266035 0.581155 -0.76908
204.367 -369.323 336.433 255 173 0 255 0.299514 0.927306 -0.22449
-485.962 -119.369 202.347 0 173 255 255 0.313958 0.406931 -0.857809
179.318 -327.984 405.005 255 175 0 255 0.379057 0.847194 -0.372261
-506.576 -38.3611 213.697 0 175 255 255 0.345865 0.21595 -0.913095
157.655 -272.899 466.262 255 178 0 255 0.451491 0.736957 -0.50304
-520.128 46.1837 209.912 0 178 255 255 0.360297 0.0160024 -0.9327
140.601 -205.659 517.914 255 181 0 255 0.514295 0.600662 -0.612132
-526.215 130.842 190.466 0 181 255 255 0.356511 -0.184737 -0.915845
129.254 -128.344 557.962 255 183 0 255 0.565306 0.443295 -0.695642
-524.745 212.072 155.463 0 183 255 255 0.334504 -0.378039 -0.863246
124.546 -43.4579 584.78 255 186 0 255 0.602798 0.270575 -0.750615
-515.95 286.357 105.656 0 186 255 255 0.295021 -0.55596 -0.777092
127.203 46.1511 597.185 255 188 0 255 0.625539 0.0887549 -0.775128
-500.39 350.356 42.4341 0 188 255 255 0.239527 -0.711169 -0.660958
137.715 137.387 594.488 255 191 0 255 0.632831 -0.0956224 -0.768363
-478.938 401.045 -32.21 0 191 255 255 0.170148 -0.837257 -0.519664
156.311 227.008 576.535 255 193 0 255 0.624537 -0.275947 -0.730621
-452.756 435.86 -115.748 0 193 255 255 0.0895877 -0.928996 -0.359083
182.949 311.746 543.725 255 196 0 255 0.601078 -0.445783 -0.663312
-423.255 452.815 -205.201 0 196 255 255 0.00101515 -0.982568 -0.185899
217.304 388.417 497.007 255 198 0 255 0.563415 -0.599103 -0.568893
-392.045 450.607 -297.252 0 198 255 255 -0.0920626 -0.995726 -0.0073347
258.78 454.042 437.864 255 201 0 255 0.513014 -0.730491 -0.450777
-360.878 428.695 -388.374 0 201 255 255 -0.185945 -0.967892 0.169146
306.522 505.955 368.272 255 204 0 255 0.451788 -0.835338 -0.313205
-331.574 387.346 -474.967 0 204 255 255 -0.27689 -0.900187 0.336147
359.436 541.911 290.642 255 206 0 255 0.382028 -0.910003 -0.161087
-305.949 327.65 -553.513 0 206 255 255 -0.361273 -0.795395 0.486651
416.231 560.173 207.743 255 209 0 255 0.306319 -0.951929 0.000168326
-285.742 251.504 -620.723 0 209 255 255 -0.435735 -0.657847 0.614306
475.453 559.585 122.617 255 211 0 255 0.227445 -0.959734 0.164859
-272.536 161.559 -673.683 0 211 255 255 -0.497325 -0.493252 0.713702
535.537 539.634 38.4771 255 214 0 255 0.148292 -0.933252 0.327185
-267.691 61.1348 -709.993 0 214 255 255 -0.543622 -0.308461 0.780594
594.858 500.479 -41.4039 255 216 0 255 0.0717426 -0.873528 0.481458
-272.275 -45.9002 -727.88 0 216 255 255 -0.572847 -0.111177 0.812088
651.785 442.963 -113.804 255 219 0 255 0.000575222 -0.782778 0.622301
-287.011 -155.27 -726.297 0 219 255 255 -0.583925 0.0903489 0.806764
704.746 368.605 -175.669 255 221 0 255 -0.0626342 -0.664301 0.744836
-312.239 -262.458 -704.995 0 221 255 255 -0.576549 0.287677 0.764744
752.275 279.561 -224.22 255 224 0 255 -0.1156 -0.522358 0.844854
-347.884 -362.889 -664.556 0 224 255 255 -0.551184 0.472528 0.687687
793.075 178.565 -257.062 255 226 0 255 -0.156408 -0.362015 0.918957
-393.449 -452.122 -606.398 0 226 255 255 -0.509051 0.637131 0.578732
826.065 68.8508 -272.275 255 229 0 255 -0.183577 -0.188963 0.964672
-448.021 -526.038 -532.747 0 229 255 255 -0.452086 0.774554 0.442363
850.423 -45.9473 -268.494 255 232 0 255 -0.196112 -0.0093101 0.980537
-510.296 -581.027 -446.569 0 232 255 255 -0.382849 0.879001 0.284225
865.622 -161.912 -244.968 255 234 0 255 -0.193536 0.170632 0.966141
-578.62 -614.16 -351.472 0 234 255 255 -0.304425 0.946059 0.110893
871.458 -274.969 -201.609 255 237 0 255 -0.1759 0.344569 0.922134
-651.048 -623.33 -251.575 0 237 255 255 -0.220294 0.972889 -0.070409
868.069 -381.024 -139.007 255 239 0 255 -0.143781 0.506446 0.8502
-725.418 -607.378 -151.354 0 239 255 255 -0.13418 0.958351 -0.25211
855.934 -476.105 -58.4311 255 242 0 255 -0.0982597 0.650658 0.752987
-799.432 -566.168 -55.464 0 242 255 255 -0.0498964 0.903056 -0.426615
835.871 -556.501 38.1978 255 244 0 255 -0.0408781 0.772238 0.634016
-870.753 -500.632 31.4497 0 244 255 255 0.0288147 0.809346 -0.586625
809.018 -618.895 148.351 255 247 0 255 0.0264163 0.867033 0.49755
-937.1 -412.77 104.948 0 247 255 255 0.0984459 0.681195 -0.725453
776.805 -660.493 268.966 255 249 0 255 0.10134 0.931837 0.348439
-996.348 -305.6 160.993 0 249 255 255 0.155872 0.524046 -0.837305
740.914 -679.131 396.53 255 252 0 255 0.181355 0.964502 0.191953
-1046.63 -183.068 196.133 0 252 255 255 0.198487 0.344578 -0.917534
3 0 1 2
3 1 2 3
3 2 3 4
3 3 4 5
3 4 5 6
3 5 6 7
3 6 7 8
3 7 8 9
3 8 9 10
3 9 10 11
3 10 11 12
3 11 12 13
3 12 13 14
3 13 14 15
3 14 15 16
3 15 16 17
3 16 17 18
3 17 18 19
3 18 19 20
3 19 20 21
3 20 21 22
3 21 22 23
3 22 23 24
3 23 24 25
3 24 25 26
3 25 26 27
3 26 27 28
3 27 28 29
3 28 29 30
3 29 30 31
3 30 31 32
3 31 32 33
3 32 33 34
3 33 34 35
3 34 35 36
3 35 36 37
3 36 37 38
3 37 38 39
3 38 39 40
3 39 40 41
3 40 41 42
3 41 42 43
3 42 43 44
3 43 44 45
3 44 45 46
3 45 46 47
3 46 47 48
3 47 48 49
3 48 49 50
3 49 50 51
3 50 51 52
3 51 52 53
3 52 53 54
3 53 54 55
3 54 55 56
3 55 56 57
3 56 57 58
3 57 58 59
3 58 59 60
3 59 60 61
3 60 61 62
3 61 62 63
3 62 63 64
3 63 64 65
3 64 65 66
3 65 66 67
3 66 67 68
3 67 68 69
3 68 69 70
3 69 70 71
3 70 71 72
3 71 72 73
3 72 73 74
3 73 74 75
3 74 75 76
3 75 76 77
3 76 77 78
3 77 78 79
3 78 79 80
3 79 80 81
3 80 81 82
3 81 82 83
3 82 83 84
3 83 84 85
3 84 85 86
3 85 86 87
3 86 87 88
3 87 88 89
3 88 89 90
3 89 90 91
3 90 91 92
3 91 92 93
3 92 93 94
3 93 94 95
3 94 95 96
3 95 96 97
3 96 97 98
3 97 98 99
3 98 99 100
3 99 100 101
3 100 101 102
3 101 102 103
3 102 103 104
3 103 104 105
3 104 105 106
3 105 106 107
3 106 107 108
3 107 108 109
3 108 109 110
3 109 110 111
3 110 111 112
3 111 112 113
3 112 113 114
3 113 114 115
3 114 115 116
3 115 116 117
3 116 117 118
3 117 118 119
3 118 119 120
3 119 120 121
3 120 121 122
3 121 122 123
3 122 123 124
3 123 124 125
3 124 125 126
3 125 126 127
3 126 127 128
3 127 128 129
3 128 129 130
3 129 130 131
3 130 131 132
3 131 132 133
3 132 133 134
3 133 134 135
3 134 135 136
3 135 136 137
3 136 137 138
3 137 138 139
3 138 139 140
3 139 140 141
3 140 141 142
3 141 142 143
3 142 143 144
3 143 144 145
3 144 145 146
3 145 146 147
3 146 147 148
3 147 148 149
3 148 149 150
3 149 150 151
3 150 151 152
3 151 152 153
3 152 153 154
3 153 154 155
3 154 155 156
3 155 156 157
3 156 157 158
3 157 158 159
3 158 159 160
3 159 160 161
3 160 161 162
3 161 162 163
3 162 163 164
3 163 164 165
3 164 165 166
3 165 166 167
3 166 167 168
3 167 168 169
3 168 169 170
3 169 170 171
3 170 171 172
3 171 172 173
3 172 173 174
3 173 174 175
3 174 175 176
3 175 176 177
3 176 177 178
3 177 178 179
3 178 179 180
3 179 180 181
3 180 181 182
3 181 182 183
3 182 183 184
3 183 184 185
3 184 185 186
3 185 186 187
3 186 187 188
3 187 188 189
3 188 189 190
3 189 190 191
3 190 191 192
3 191 192 193
3 192 193 194
3 193 194 195
3 194 195 196
3 195 196 197
3 196 197 198
3 197 198 199
