ply
format ascii 1.0
element vertex 2000
property float x
property float y
property float z
end_header
5 -4.99981 0.0436327
-5 -4.99981 0.0436327
5 -4.99924 0.087262
-5 -4.99924 0.087262
5 -4.99829 0.130885
-5 -4.99829 0.130885
5 -4.99695 0.174497
-5 -4.99695 0.174497
5 -4.99524 0.218097
-5 -4.99524 0.218097
5 -4.99315 0.26168
-5 -4.99315 0.26168
5 -4.99067 0.305243
-5 -4.99067 0.305243
5 -4.98782 0.348782
-5 -4.98782 0.348782
5 -4.98459 0.392295
-5 -4.98459 0.392295
5 -4.98097 0.435779
-5 -4.98097 0.435779
5 -4.97698 0.479229
-5 -4.97698 0.479229
5 -4.97261 0.522642
-5 -4.97261 0.522642
5 -4.96786 0.566016
-5 -4.96786 0.566016
5 -4.96273 0.609347
-5 -4.96273 0.609347
5 -4.95722 0.652631
-5 -4.95722 0.652631
5 -4.95134 0.695865
-5 -4.95134 0.695865
5 -4.94508 0.739047
-5 -4.94508 0.739047
5 -4.93844 0.782172
-5 -4.93844 0.782172
5 -4.93143 0.825238
-5 -4.93143 0.825238
5 -4.92404 0.868241
-5 -4.92404 0.868241
5 -4.91627 0.911177
-5 -4.91627 0.911177
5 -4.90813 0.954045
-5 -4.90813 0.954045
5 -4.89962 0.996839
-5 -4.89962 0.996839
5 -4.89074 1.03956
-5 -4.89074 1.03956
5 -4.88148 1.0822
-5 -4.88148 1.0822
5 -4.87185 1.12475
-5 -4.87185 1.12475
5 -4.86185 1.16723
-5 -4.86185 1.16723
5 -4.85148 1.20961
-5 -4.85148 1.20961
5 -4.84074 1.2519
-5 -4.84074 1.2519
5 -4.82963 1.29409
-5 -4.82963 1.29409
5 -4.81815 1.33619
-5 -4.81815 1.33619
5 -4.80631 1.37819
-5 -4.80631 1.37819
5 -4.7941 1.42008
-5 -4.7941 1.42008
5 -4.78152 1.46186
-5 -4.78152 1.46186
5 -4.76858 1.50353
-5 -4.76858 1.50353
5 -4.75528 1.54508
-5 -4.75528 1.54508
5 -4.74162 1.58652
-5 -4.74162 1.58652
5 -4.72759 1.62784
-5 -4.72759 1.62784
5 -4.71321 1.66903
-5 -4.71321 1.66903
5 -4.69846 1.7101
-5 -4.69846 1.7101
5 -4.68336 1.75104
-5 -4.68336 1.75104
5 -4.6679 1.79184
-5 -4.6679 1.79184
5 -4.65209 1.8325
-5 -4.65209 1.8325
5 -4.63592 1.87303
-5 -4.63592 1.87303
5 -4.6194 1.91342
-5 -4.6194 1.91342
5 -4.60252 1.95365
-5 -4.60252 1.95365
5 -4.5853 1.99374
-5 -4.5853 1.99374
5 -4.56773 2.03368
-5 -4.56773 2.03368
5 -4.5498 2.07346
-5 -4.5498 2.07346
5 -4.53154 2.11309
-5 -4.53154 2.11309
5 -4.51292 2.15255
-5 -4.51292 2.15255
5 -4.49397 2.19185
-5 -4.49397 2.19185
5 -4.47467 2.23099
-5 -4.47467 2.23099
5 -4.45503 2.26995
-5 -4.45503 2.26995
5 -4.43505 2.30874
-5 -4.43505 2.30874
5 -4.41474 2.34736
-5 -4.41474 2.34736
5 -4.39408 2.38579
-5 -4.39408 2.38579
5 -4.3731 2.42405
-5 -4.3731 2.42405
5 -4.35178 2.46212
-5 -4.35178 2.46212
5 -4.33013 2.5
-5 -4.33013 2.5
5 -4.30814 2.53769
-5 -4.30814 2.53769
5 -4.28583 2.57519
-5 -4.28583 2.57519
5 -4.2632 2.61249
-5 -4.2632 2.61249
5 -4.24024 2.64959
-5 -4.24024 2.64959
5 -4.21696 2.6865
-5 -4.21696 2.6865
5 -4.19335 2.72319
-5 -4.19335 2.72319
5 -4.16943 2.75968
-5 -4.16943 2.75968
5 -4.14519 2.79596
-5 -4.14519 2.79596
5 -4.12063 2.83203
-5 -4.12063 2.83203
5 -4.09576 2.86788
-5 -4.09576 2.86788
5 -4.07058 2.90351
-5 -4.07058 2.90351
5 -4.04508 2.93892
-5 -4.04508 2.93892
5 -4.01928 2.97411
-5 -4.01928 2.97411
5 -3.99318 3.00907
-5 -3.99318 3.00907
5 -3.96676 3.0438
-5 -3.96676 3.0438
5 -3.94005 3.0783
-5 -3.94005 3.0783
5 -3.91304 3.11257
-5 -3.91304 3.11257
5 -3.88573 3.1466
-5 -3.88573 3.1466
5 -3.85812 3.18039
-5 -3.85812 3.18039
5 -3.83022 3.21393
-5 -3.83022 3.21393
5 -3.80203 3.24724
-5 -3.80203 3.24724
5 -3.77355 3.28029
-5 -3.77355 3.28029
5 -3.74478 3.3131
-5 -3.74478 3.3131
5 -3.71572 3.34565
-5 -3.71572 3.34565
5 -3.68638 3.37795
-5 -3.68638 3.37795
5 -3.65677 3.40999
-5 -3.65677 3.40999
5 -3.62687 3.44177
-5 -3.62687 3.44177
5 -3.5967 3.47329
-5 -3.5967 3.47329
5 -3.56625 3.50454
-5 -3.56625 3.50454
5 -3.53553 3.53553
-5 -3.53553 3.53553
5 -3.50454 3.56625
-5 -3.50454 3.56625
5 -3.47329 3.59669
-5 -3.47329 3.59669
5 -3.44177 3.62687
-5 -3.44177 3.62687
5 -3.40999 3.65676
-5 -3.40999 3.65676
5 -3.37795 3.68638
-5 -3.37795 3.68638
5 -3.34565 3.71572
-5 -3.34565 3.71572
5 -3.3131 3.74477
-5 -3.3131 3.74477
5 -3.28029 3.77354
-5 -3.28029 3.77354
5 -3.24724 3.80202
-5 -3.24724 3.80202
5 -3.21393 3.83022
-5 -3.21393 3.83022
5 -3.18039 3.85812
-5 -3.18039 3.85812
5 -3.1466 3.88572
-5 -3.1466 3.88572
5 -3.11257 3.91304
-5 -3.11257 3.91304
5 -3.0783 3.94005
-5 -3.0783 3.94005
5 -3.0438 3.96676
-5 -3.0438 3.96676
5 -3.00907 3.99317
-5 -3.00907 3.99317
5 -2.97411 4.01928
-5 -2.97411 4.01928
5 -2.93892 4.04508
-5 -2.93892 4.04508
5 -2.90351 4.07057
-5 -2.90351 4.07057
5 -2.86788 4.09575
-5 -2.86788 4.09575
5 -2.83203 4.12062
-5 -2.83203 4.12062
5 -2.79596 4.14518
-5 -2.79596 4.14518
5 -2.75968 4.16942
-5 -2.75968 4.16942
5 -2.72319 4.19335
-5 -2.72319 4.19335
5 -2.68649 4.21695
-5 -2.68649 4.21695
5 -2.64959 4.24023
-5 -2.64959 4.24023
5 -2.61249 4.26319
-5 -2.61249 4.26319
5 -2.57519 4.28583
-5 -2.57519 4.28583
5 -2.53769 4.30814
-5 -2.53769 4.30814
5 -2.5 4.33012
-5 -2.5 4.33012
5 -2.46211 4.35177
-5 -2.46211 4.35177
5 -2.42405 4.37309
-5 -2.42405 4.37309
5 -2.38579 4.39408
-5 -2.38579 4.39408
5 -2.34735 4.41473
-5 -2.34735 4.41473
5 -2.30874 4.43505
-5 -2.30874 4.43505
5 -2.26995 4.45502
-5 -2.26995 4.45502
5 -2.23099 4.47466
-5 -2.23099 4.47466
5 -2.19185 4.49396
-5 -2.19185 4.49396
5 -2.15255 4.51292
-5 -2.15255 4.51292
5 -2.11309 4.53153
-5 -2.11309 4.53153
5 -2.07346 4.5498
-5 -2.07346 4.5498
5 -2.03368 4.56772
-5 -2.03368 4.56772
5 -1.99374 4.58529
-5 -1.99374 4.58529
5 -1.95365 4.60252
-5 -1.95365 4.60252
5 -1.91341 4.61939
-5 -1.91341 4.61939
5 -1.87303 4.63591
-5 -1.87303 4.63591
5 -1.8325 4.65208
-5 -1.8325 4.65208
5 -1.79184 4.66789
-5 -1.79184 4.66789
5 -1.75103 4.68335
-5 -1.75103 4.68335
5 -1.7101 4.69845
-5 -1.7101 4.69845
5 -1.66903 4.7132
-5 -1.66903 4.7132
5 -1.62784 4.72758
-5 -1.62784 4.72758
5 -1.58652 4.74161
-5 -1.58652 4.74161
5 -1.54508 4.75527
-5 -1.54508 4.75527
5 -1.50353 4.76858
-5 -1.50353 4.76858
5 -1.46186 4.78151
-5 -1.46186 4.78151
5 -1.42007 4.79409
-5 -1.42007 4.79409
5 -1.37819 4.8063
-5 -1.37819 4.8063
5 -1.33619 4.81814
-5 -1.33619 4.81814
5 -1.29409 4.82962
-5 -1.29409 4.82962
5 -1.2519 4.84073
-5 -1.2519 4.84073
5 -1.20961 4.85147
-5 -1.20961 4.85147
5 -1.16723 4.86184
-5 -1.16723 4.86184
5 -1.12475 4.87184
-5 -1.12475 4.87184
5 -1.0822 4.88147
-5 -1.0822 4.88147
5 -1.03956 4.89073
-5 -1.03956 4.89073
5 -0.996839 4.89961
-5 -0.996839 4.89961
5 -0.954044 4.90813
-5 -0.954044 4.90813
5 -0.911177 4.91626
-5 -0.911177 4.91626
5 -0.86824 4.92403
-5 -0.86824 4.92403
5 -0.825237 4.93142
-5 -0.825237 4.93142
5 -0.782172 4.93843
-5 -0.782172 4.93843
5 -0.739046 4.94507
-5 -0.739046 4.94507
5 -0.695865 4.95133
-5 -0.695865 4.95133
5 -0.65263 4.95721
-5 -0.65263 4.95721
5 -0.609346 4.96272
-5 -0.609346 4.96272
5 -0.566016 4.96785
-5 -0.566016 4.96785
5 -0.522642 4.9726
-5 -0.522642 4.9726
5 -0.479229 4.97697
-5 -0.479229 4.97697
5 -0.435779 4.98096
-5 -0.435779 4.98096
5 -0.392295 4.98458
-5 -0.392295 4.98458
5 -0.348782 4.98781
-5 -0.348782 4.98781
5 -0.305243 4.99066
-5 -0.305243 4.99066
5 -0.26168 4.99314
-5 -0.26168 4.99314
5 -0.218097 4.99523
-5 -0.218097 4.99523
5 -0.174498 4.99694
-5 -0.174498 4.99694
5 -0.130885 4.99828
-5 -0.130885 4.99828
5 -0.0872626 4.99923
-5 -0.0872626 4.99923
5 -0.0436333 4.9998
-5 -0.0436333 4.9998
5 -7.17118e-07 4.99999
-5 -7.17118e-07 4.99999
5 0.0436319 4.9998
-5 0.0436319 4.9998
5 0.0872611 4.99923
-5 0.0872611 4.99923
5 0.130884 4.99828
-5 0.130884 4.99828
5 0.174496 4.99694
-5 0.174496 4.99694
5 0.218096 4.99523
-5 0.218096 4.99523
5 0.261678 4.99314
-5 0.261678 4.99314
5 0.305241 4.99066
-5 0.305241 4.99066
5 0.348781 4.98781
-5 0.348781 4.98781
5 0.392294 4.98458
-5 0.392294 4.98458
5 0.435777 4.98096
-5 0.435777 4.98096
5 0.479227 4.97697
-5 0.479227 4.97697
5 0.52264 4.9726
-5 0.52264 4.9726
5 0.566014 4.96785
-5 0.566014 4.96785
5 0.609345 4.96272
-5 0.609345 4.96272
5 0.652629 4.95721
-5 0.652629 4.95721
5 0.695863 4.95133
-5 0.695863 4.95133
5 0.739045 4.94507
-5 0.739045 4.94507
5 0.78217 4.93843
-5 0.78217 4.93843
5 0.825235 4.93142
-5 0.825235 4.93142
5 0.868238 4.92403
-5 0.868238 4.92403
5 0.911175 4.91626
-5 0.911175 4.91626
5 0.954042 4.90813
-5 0.954042 4.90813
5 0.996837 4.89961
-5 0.996837 4.89961
5 1.03956 4.89073
-5 1.03956 4.89073
5 1.08219 4.88147
-5 1.08219 4.88147
5 1.12475 4.87184
-5 1.12475 4.87184
5 1.16722 4.86184
-5 1.16722 4.86184
5 1.20961 4.85147
-5 1.20961 4.85147
5 1.2519 4.84073
-5 1.2519 4.84073
5 1.29409 4.82962
-5 1.29409 4.82962
5 1.33619 4.81814
-5 1.33619 4.81814
5 1.37818 4.8063
-5 1.37818 4.8063
5 1.42007 4.79409
-5 1.42007 4.79409
5 1.46185 4.78151
-5 1.46185 4.78151
5 1.50352 4.76857
-5 1.50352 4.76857
5 1.54508 4.75527
-5 1.54508 4.75527
5 1.58652 4.74161
-5 1.58652 4.74161
5 1.62784 4.72758
-5 1.62784 4.72758
5 1.66903 4.7132
-5 1.66903 4.7132
5 1.7101 4.69845
-5 1.7101 4.69845
5 1.75103 4.68335
-5 1.75103 4.68335
5 1.79183 4.66789
-5 1.79183 4.66789
5 1.8325 4.65208
-5 1.8325 4.65208
5 1.87303 4.63591
-5 1.87303 4.63591
5 1.91341 4.61939
-5 1.91341 4.61939
5 1.95365 4.60251
-5 1.95365 4.60251
5 1.99374 4.58529
-5 1.99374 4.58529
5 2.03368 4.56772
-5 2.03368 4.56772
5 2.07346 4.5498
-5 2.07346 4.5498
5 2.11309 4.53153
-5 2.11309 4.53153
5 2.15255 4.51292
-5 2.15255 4.51292
5 2.19185 4.49396
-5 2.19185 4.49396
5 2.23098 4.47466
-5 2.23098 4.47466
5 2.26995 4.45502
-5 2.26995 4.45502
5 2.30874 4.43504
-5 2.30874 4.43504
5 2.34735 4.41473
-5 2.34735 4.41473
5 2.38579 4.39408
-5 2.38579 4.39408
5 2.42404 4.37309
-5 2.42404 4.37309
5 2.46211 4.35177
-5 2.46211 4.35177
5 2.49999 4.33012
-5 2.49999 4.33012
5 2.53768 4.30814
-5 2.53768 4.30814
5 2.57518 4.28583
-5 2.57518 4.28583
5 2.61249 4.26319
-5 2.61249 4.26319
5 2.64959 4.24023
-5 2.64959 4.24023
5 2.68649 4.21695
-5 2.68649 4.21695
5 2.72319 4.19334
-5 2.72319 4.19334
5 2.75968 4.16942
-5 2.75968 4.16942
5 2.79596 4.14518
-5 2.79596 4.14518
5 2.83202 4.12062
-5 2.83202 4.12062
5 2.86787 4.09575
-5 2.86787 4.09575
5 2.90351 4.07057
-5 2.90351 4.07057
5 2.93892 4.04508
-5 2.93892 4.04508
5 2.9741 4.01927
-5 2.9741 4.01927
5 3.00907 3.99317
-5 3.00907 3.99317
5 3.0438 3.96676
-5 3.0438 3.96676
5 3.0783 3.94004
-5 3.0783 3.94004
5 3.11256 3.91303
-5 3.11256 3.91303
5 3.14659 3.88572
-5 3.14659 3.88572
5 3.18038 3.85811
-5 3.18038 3.85811
5 3.21393 3.83021
-5 3.21393 3.83021
5 3.24723 3.80202
-5 3.24723 3.80202
5 3.28028 3.77354
-5 3.28028 3.77354
5 3.31309 3.74477
-5 3.31309 3.74477
5 3.34564 3.71571
-5 3.34564 3.71571
5 3.37794 3.68638
-5 3.37794 3.68638
5 3.40998 3.65676
-5 3.40998 3.65676
5 3.44176 3.62686
-5 3.44176 3.62686
5 3.47328 3.59669
-5 3.47328 3.59669
5 3.50453 3.56624
-5 3.50453 3.56624
5 3.53552 3.53552
-5 3.53552 3.53552
5 3.56624 3.50454
-5 3.56624 3.50454
5 3.59669 3.47328
-5 3.59669 3.47328
5 3.62686 3.44176
-5 3.62686 3.44176
5 3.65676 3.40998
-5 3.65676 3.40998
5 3.68637 3.37794
-5 3.68637 3.37794
5 3.71571 3.34564
-5 3.71571 3.34564
5 3.74477 3.31309
-5 3.74477 3.31309
5 3.77354 3.28029
-5 3.77354 3.28029
5 3.80202 3.24723
-5 3.80202 3.24723
5 3.83021 3.21393
-5 3.83021 3.21393
5 3.85811 3.18038
-5 3.85811 3.18038
5 3.88572 3.14659
-5 3.88572 3.14659
5 3.91303 3.11256
-5 3.91303 3.11256
5 3.94004 3.0783
-5 3.94004 3.0783
5 3.96675 3.0438
-5 3.96675 3.0438
5 3.99316 3.00907
-5 3.99316 3.00907
5 4.01927 2.97411
-5 4.01927 2.97411
5 4.04507 2.93892
-5 4.04507 2.93892
5 4.07056 2.90351
-5 4.07056 2.90351
5 4.09575 2.86787
-5 4.09575 2.86787
5 4.12062 2.83202
-5 4.12062 2.83202
5 4.14517 2.79596
-5 4.14517 2.79596
5 4.16941 2.75968
-5 4.16941 2.75968
5 4.19334 2.72319
-5 4.19334 2.72319
5 4.21694 2.68649
-5 4.21694 2.68649
5 4.24023 2.64959
-5 4.24023 2.64959
5 4.26319 2.61248
-5 4.26319 2.61248
5 4.28582 2.57518
-5 4.28582 2.57518
5 4.30813 2.53768
-5 4.30813 2.53768
5 4.33011 2.49999
-5 4.33011 2.49999
5 4.35176 2.46211
-5 4.35176 2.46211
5 4.37308 2.42404
-5 4.37308 2.42404
5 4.39407 2.38579
-5 4.39407 2.38579
5 4.41472 2.34735
-5 4.41472 2.34735
5 4.43504 2.30874
-5 4.43504 2.30874
5 4.45502 2.26995
-5 4.45502 2.26995
5 4.47466 2.23098
-5 4.47466 2.23098
5 4.49395 2.19185
-5 4.49395 2.19185
5 4.51291 2.15255
-5 4.51291 2.15255
5 4.53152 2.11309
-5 4.53152 2.11309
5 4.54979 2.07346
-5 4.54979 2.07346
5 4.56771 2.03368
-5 4.56771 2.03368
5 4.58528 1.99374
-5 4.58528 1.99374
5 4.60251 1.95365
-5 4.60251 1.95365
5 4.61938 1.91341
-5 4.61938 1.91341
5 4.6359 1.87303
-5 4.6359 1.87303
5 4.65207 1.8325
-5 4.65207 1.8325
5 4.66788 1.79183
-5 4.66788 1.79183
5 4.68334 1.75103
-5 4.68334 1.75103
5 4.69845 1.7101
-5 4.69845 1.7101
5 4.71319 1.66903
-5 4.71319 1.66903
5 4.72758 1.62784
-5 4.72758 1.62784
5 4.7416 1.58652
-5 4.7416 1.58652
5 4.75526 1.54508
-5 4.75526 1.54508
5 4.76857 1.50352
-5 4.76857 1.50352
5 4.78151 1.46185
-5 4.78151 1.46185
5 4.79408 1.42007
-5 4.79408 1.42007
5 4.80629 1.37818
-5 4.80629 1.37818
5 4.81813 1.33619
-5 4.81813 1.33619
5 4.82961 1.29409
-5 4.82961 1.29409
5 4.84072 1.2519
-5 4.84072 1.2519
5 4.85146 1.20961
-5 4.85146 1.20961
5 4.86183 1.16722
-5 4.86183 1.16722
5 4.87183 1.12475
-5 4.87183 1.12475
5 4.88146 1.0822
-5 4.88146 1.0822
5 4.89072 1.03956
-5 4.89072 1.03956
5 4.8996 0.996837
-5 4.8996 0.996837
5 4.90812 0.954043
-5 4.90812 0.954043
5 4.91625 0.911175
-5 4.91625 0.911175
5 4.92402 0.868239
-5 4.92402 0.868239
5 4.93141 0.825236
-5 4.93141 0.825236
5 4.93842 0.782171
-5 4.93842 0.782171
5 4.94506 0.739045
-5 4.94506 0.739045
5 4.95132 0.695864
-5 4.95132 0.695864
5 4.9572 0.65263
-5 4.9572 0.65263
5 4.96271 0.609346
-5 4.96271 0.609346
5 4.96784 0.566015
-5 4.96784 0.566015
5 4.97259 0.522641
-5 4.97259 0.522641
5 4.97696 0.479228
-5 4.97696 0.479228
5 4.98095 0.435778
-5 4.98095 0.435778
5 4.98457 0.392295
-5 4.98457 0.392295
5 4.9878 0.348782
-5 4.9878 0.348782
5 4.99065 0.305243
-5 4.99065 0.305243
5 4.99313 0.26168
-5 4.99313 0.26168
5 4.99522 0.218097
-5 4.99522 0.218097
5 4.99693 0.174498
-5 4.99693 0.174498
5 4.99827 0.130885
-5 4.99827 0.130885
5 4.99922 0.0872629
-5 4.99922 0.0872629
5 4.99979 0.0436337
-5 4.99979 0.0436337
5 4.99998 1.21538e-06
-5 4.99998 1.21538e-06
5 4.99979 -0.0436313
-5 4.99979 -0.0436313
5 4.99922 -0.0872605
-5 4.99922 -0.0872605
5 4.99827 -0.130883
-5 4.99827 -0.130883
5 4.99693 -0.174496
-5 4.99693 -0.174496
5 4.99522 -0.218095
-5 4.99522 -0.218095
5 4.99313 -0.261677
-5 4.99313 -0.261677
5 4.99065 -0.30524
-5 4.99065 -0.30524
5 4.9878 -0.34878
-5 4.9878 -0.34878
5 4.98457 -0.392293
-5 4.98457 -0.392293
5 4.98095 -0.435776
-5 4.98095 -0.435776
5 4.97696 -0.479225
-5 4.97696 -0.479225
5 4.97259 -0.522639
-5 4.97259 -0.522639
5 4.96784 -0.566012
-5 4.96784 -0.566012
5 4.96271 -0.609343
-5 4.96271 -0.609343
5 4.9572 -0.652627
-5 4.9572 -0.652627
5 4.95132 -0.695861
-5 4.95132 -0.695861
5 4.94506 -0.739043
-5 4.94506 -0.739043
5 4.93842 -0.782168
-5 4.93842 -0.782168
5 4.93141 -0.825233
-5 4.93141 -0.825233
5 4.92402 -0.868236
-5 4.92402 -0.868236
5 4.91625 -0.911172
-5 4.91625 -0.911172
5 4.90812 -0.954039
-5 4.90812 -0.954039
5 4.8996 -0.996834
-5 4.8996 -0.996834
5 4.89072 -1.03955
-5 4.89072 -1.03955
5 4.88146 -1.08219
-5 4.88146 -1.08219
5 4.87183 -1.12475
-5 4.87183 -1.12475
5 4.86183 -1.16722
-5 4.86183 -1.16722
5 4.85146 -1.2096
-5 4.85146 -1.2096
5 4.84072 -1.25189
-5 4.84072 -1.25189
5 4.82961 -1.29409
-5 4.82961 -1.29409
5 4.81813 -1.33618
-5 4.81813 -1.33618
5 4.80629 -1.37818
-5 4.80629 -1.37818
5 4.79408 -1.42007
-5 4.79408 -1.42007
5 4.7815 -1.46185
-5 4.7815 -1.46185
5 4.76856 -1.50352
-5 4.76856 -1.50352
5 4.75526 -1.54508
-5 4.75526 -1.54508
5 4.7416 -1.58651
-5 4.7416 -1.58651
5 4.72757 -1.62783
-5 4.72757 -1.62783
5 4.71319 -1.66903
-5 4.71319 -1.66903
5 4.69844 -1.71009
-5 4.69844 -1.71009
5 4.68334 -1.75103
-5 4.68334 -1.75103
5 4.66788 -1.79183
-5 4.66788 -1.79183
5 4.65207 -1.8325
-5 4.65207 -1.8325
5 4.6359 -1.87302
-5 4.6359 -1.87302
5 4.61938 -1.91341
-5 4.61938 -1.91341
5 4.6025 -1.95365
-5 4.6025 -1.95365
5 4.58528 -1.99373
-5 4.58528 -1.99373
5 4.56771 -2.03367
-5 4.56771 -2.03367
5 4.54979 -2.07346
-5 4.54979 -2.07346
5 4.53152 -2.11308
-5 4.53152 -2.11308
5 4.51291 -2.15254
-5 4.51291 -2.15254
5 4.49395 -2.19184
-5 4.49395 -2.19184
5 4.47465 -2.23098
-5 4.47465 -2.23098
5 4.45501 -2.26994
-5 4.45501 -2.26994
5 4.43503 -2.30873
-5 4.43503 -2.30873
5 4.41472 -2.34735
-5 4.41472 -2.34735
5 4.39407 -2.38578
-5 4.39407 -2.38578
5 4.37308 -2.42404
-5 4.37308 -2.42404
5 4.35176 -2.4621
-5 4.35176 -2.4621
5 4.33011 -2.49999
-5 4.33011 -2.49999
5 4.30813 -2.53768
-5 4.30813 -2.53768
5 4.28582 -2.57518
-5 4.28582 -2.57518
5 4.26318 -2.61248
-5 4.26318 -2.61248
5 4.24022 -2.64958
-5 4.24022 -2.64958
5 4.21694 -2.68648
-5 4.21694 -2.68648
5 4.19333 -2.72318
-5 4.19333 -2.72318
5 4.16941 -2.75967
-5 4.16941 -2.75967
5 4.14517 -2.79595
-5 4.14517 -2.79595
5 4.12061 -2.83202
-5 4.12061 -2.83202
5 4.09574 -2.86787
-5 4.09574 -2.86787
5 4.07056 -2.9035
-5 4.07056 -2.9035
5 4.04507 -2.93891
-5 4.04507 -2.93891
5 4.01927 -2.9741
-5 4.01927 -2.9741
5 3.99316 -3.00906
-5 3.99316 -3.00906
5 3.96675 -3.04379
-5 3.96675 -3.04379
5 3.94004 -3.07829
-5 3.94004 -3.07829
5 3.91302 -3.11256
-5 3.91302 -3.11256
5 3.88571 -3.14659
-5 3.88571 -3.14659
5 3.85811 -3.18037
-5 3.85811 -3.18037
5 3.8302 -3.21392
-5 3.8302 -3.21392
5 3.80201 -3.24722
-5 3.80201 -3.24722
5 3.77353 -3.28028
-5 3.77353 -3.28028
5 3.74476 -3.31308
-5 3.74476 -3.31308
5 3.71571 -3.34564
-5 3.71571 -3.34564
5 3.68637 -3.37793
-5 3.68637 -3.37793
5 3.65675 -3.40997
-5 3.65675 -3.40997
5 3.62685 -3.44175
-5 3.62685 -3.44175
5 3.59668 -3.47327
-5 3.59668 -3.47327
5 3.56624 -3.50453
-5 3.56624 -3.50453
5 3.53552 -3.53552
-5 3.53552 -3.53552
5 3.50453 -3.56623
-5 3.50453 -3.56623
5 3.47328 -3.59668
-5 3.47328 -3.59668
5 3.44176 -3.62685
-5 3.44176 -3.62685
5 3.40998 -3.65675
-5 3.40998 -3.65675
5 3.37793 -3.68637
-5 3.37793 -3.68637
5 3.34564 -3.7157
-5 3.34564 -3.7157
5 3.31308 -3.74476
-5 3.31308 -3.74476
5 3.28028 -3.77353
-5 3.28028 -3.77353
5 3.24722 -3.80201
-5 3.24722 -3.80201
5 3.21392 -3.8302
-5 3.21392 -3.8302
5 3.18038 -3.8581
-5 3.18038 -3.8581
5 3.14659 -3.88571
-5 3.14659 -3.88571
5 3.11256 -3.91302
-5 3.11256 -3.91302
5 3.07829 -3.94003
-5 3.07829 -3.94003
5 3.04379 -3.96674
-5 3.04379 -3.96674
5 3.00906 -3.99316
-5 3.00906 -3.99316
5 2.9741 -4.01926
-5 2.9741 -4.01926
5 2.93891 -4.04506
-5 2.93891 -4.04506
5 2.9035 -4.07055
-5 2.9035 -4.07055
5 2.86787 -4.09574
-5 2.86787 -4.09574
5 2.83202 -4.12061
-5 2.83202 -4.12061
5 2.79595 -4.14516
-5 2.79595 -4.14516
5 2.75967 -4.16941
-5 2.75967 -4.16941
5 2.72318 -4.19333
-5 2.72318 -4.19333
5 2.68648 -4.21693
-5 2.68648 -4.21693
5 2.64958 -4.24022
-5 2.64958 -4.24022
5 2.61248 -4.26318
-5 2.61248 -4.26318
5 2.57518 -4.28581
-5 2.57518 -4.28581
5 2.53768 -4.30812
-5 2.53768 -4.30812
5 2.49999 -4.3301
-5 2.49999 -4.3301
5 2.4621 -4.35175
-5 2.4621 -4.35175
5 2.42404 -4.37307
-5 2.42404 -4.37307
5 2.38578 -4.39406
-5 2.38578 -4.39406
5 2.34735 -4.41471
-5 2.34735 -4.41471
5 2.30873 -4.43503
-5 2.30873 -4.43503
5 2.26994 -4.45501
-5 2.26994 -4.45501
5 2.23098 -4.47465
-5 2.23098 -4.47465
5 2.19184 -4.49394
-5 2.19184 -4.49394
5 2.15254 -4.5129
-5 2.15254 -4.5129
5 2.11308 -4.53151
-5 2.11308 -4.53151
5 2.07346 -4.54978
-5 2.07346 -4.54978
5 2.03367 -4.5677
-5 2.03367 -4.5677
5 1.99373 -4.58527
-5 1.99373 -4.58527
5 1.95364 -4.6025
-5 1.95364 -4.6025
5 1.91341 -4.61937
-5 1.91341 -4.61937
5 1.87302 -4.63589
-5 1.87302 -4.63589
5 1.8325 -4.65206
-5 1.8325 -4.65206
5 1.79183 -4.66787
-5 1.79183 -4.66787
5 1.75103 -4.68333
-5 1.75103 -4.68333
5 1.71009 -4.69843
-5 1.71009 -4.69843
5 1.66903 -4.71318
-5 1.66903 -4.71318
5 1.62783 -4.72756
-5 1.62783 -4.72756
5 1.58651 -4.74159
-5 1.58651 -4.74159
5 1.54508 -4.75525
-5 1.54508 -4.75525
5 1.50352 -4.76856
-5 1.50352 -4.76856
5 1.46185 -4.7815
-5 1.46185 -4.7815
5 1.42007 -4.79407
-5 1.42007 -4.79407
5 1.37818 -4.80628
-5 1.37818 -4.80628
5 1.33618 -4.81812
-5 1.33618 -4.81812
5 1.29409 -4.8296
-5 1.29409 -4.8296
5 1.25189 -4.84071
-5 1.25189 -4.84071
5 1.2096 -4.85145
-5 1.2096 -4.85145
5 1.16722 -4.86182
-5 1.16722 -4.86182
5 1.12475 -4.87182
-5 1.12475 -4.87182
5 1.08219 -4.88145
-5 1.08219 -4.88145
5 1.03955 -4.89071
-5 1.03955 -4.89071
5 0.996834 -4.89959
-5 0.996834 -4.89959
5 0.95404 -4.90811
-5 0.95404 -4.90811
5 0.911173 -4.91624
-5 0.911173 -4.91624
5 0.868236 -4.92401
-5 0.868236 -4.92401
5 0.825233 -4.9314
-5 0.825233 -4.9314
5 0.782168 -4.93841
-5 0.782168 -4.93841
5 0.739043 -4.94505
-5 0.739043 -4.94505
5 0.695862 -4.95131
-5 0.695862 -4.95131
5 0.652627 -4.95719
-5 0.652627 -4.95719
5 0.609343 -4.9627
-5 0.609343 -4.9627
5 0.566013 -4.96783
-5 0.566013 -4.96783
5 0.522639 -4.97258
-5 0.522639 -4.97258
5 0.479226 -4.97695
-5 0.479226 -4.97695
5 0.435776 -4.98094
-5 0.435776 -4.98094
5 0.392293 -4.98456
-5 0.392293 -4.98456
5 0.348781 -4.98779
-5 0.348781 -4.98779
5 0.305241 -4.99064
-5 0.305241 -4.99064
5 0.261678 -4.99312
-5 0.261678 -4.99312
5 0.218096 -4.99521
-5 0.218096 -4.99521
5 0.174497 -4.99692
-5 0.174497 -4.99692
5 0.130884 -4.99826
-5 0.130884 -4.99826
5 0.0872618 -4.99921
-5 0.0872618 -4.99921
5 0.0436327 -4.99978
-5 0.0436327 -4.99978
5 3.3062e-07 -4.99997
-5 3.3062e-07 -4.99997
5 -0.0436321 -4.99978
-5 -0.0436321 -4.99978
5 -0.0872611 -4.99921
-5 -0.0872611 -4.99921
5 -0.130884 -4.99826
-5 -0.130884 -4.99826
5 -0.174496 -4.99692
-5 -0.174496 -4.99692
5 -0.218095 -4.99521
-5 -0.218095 -4.99521
5 -0.261678 -4.99312
-5 -0.261678 -4.99312
5 -0.30524 -4.99064
-5 -0.30524 -4.99064
5 -0.34878 -4.98779
-5 -0.34878 -4.98779
5 -0.392293 -4.98456
-5 -0.392293 -4.98456
5 -0.435776 -4.98094
-5 -0.435776 -4.98094
5 -0.479225 -4.97695
-5 -0.479225 -4.97695
5 -0.522639 -4.97258
-5 -0.522639 -4.97258
5 -0.566012 -4.96783
-5 -0.566012 -4.96783
5 -0.609342 -4.9627
-5 -0.609342 -4.9627
5 -0.652626 -4.95719
-5 -0.652626 -4.95719
5 -0.695861 -4.95131
-5 -0.695861 -4.95131
5 -0.739042 -4.94505
-5 -0.739042 -4.94505
5 -0.782167 -4.93841
-5 -0.782167 -4.93841
5 -0.825232 -4.9314
-5 -0.825232 -4.9314
5 -0.868235 -4.92401
-5 -0.868235 -4.92401
5 -0.911171 -4.91624
-5 -0.911171 -4.91624
5 -0.954038 -4.9081
-5 -0.954038 -4.9081
5 -0.996833 -4.89959
-5 -0.996833 -4.89959
5 -1.03955 -4.89071
-5 -1.03955 -4.89071
5 -1.08219 -4.88145
-5 -1.08219 -4.88145
5 -1.12475 -4.87182
-5 -1.12475 -4.87182
5 -1.16722 -4.86182
-5 -1.16722 -4.86182
5 -1.2096 -4.85145
-5 -1.2096 -4.85145
5 -1.25189 -4.84071
-5 -1.25189 -4.84071
5 -1.29409 -4.8296
-5 -1.29409 -4.8296
5 -1.33618 -4.81812
-5 -1.33618 -4.81812
5 -1.37818 -4.80628
-5 -1.37818 -4.80628
5 -1.42007 -4.79407
-5 -1.42007 -4.79407
5 -1.46185 -4.78149
-5 -1.46185 -4.78149
5 -1.50352 -4.76855
-5 -1.50352 -4.76855
5 -1.54507 -4.75525
-5 -1.54507 -4.75525
5 -1.58651 -4.74159
-5 -1.58651 -4.74159
5 -1.62783 -4.72756
-5 -1.62783 -4.72756
5 -1.66902 -4.71318
-5 -1.66902 -4.71318
5 -1.71009 -4.69843
-5 -1.71009 -4.69843
5 -1.75102 -4.68333
-5 -1.75102 -4.68333
5 -1.79183 -4.66787
-5 -1.79183 -4.66787
5 -1.83249 -4.65206
-5 -1.83249 -4.65206
5 -1.87302 -4.63589
-5 -1.87302 -4.63589
5 -1.9134 -4.61937
-5 -1.9134 -4.61937
5 -1.95364 -4.60249
-5 -1.95364 -4.60249
5 -1.99373 -4.58527
-5 -1.99373 -4.58527
5 -2.03367 -4.5677
-5 -2.03367 -4.5677
5 -2.07345 -4.54978
-5 -2.07345 -4.54978
5 -2.11308 -4.53151
-5 -2.11308 -4.53151
5 -2.15254 -4.5129
-5 -2.15254 -4.5129
5 -2.19184 -4.49394
-5 -2.19184 -4.49394
5 -2.23097 -4.47464
-5 -2.23097 -4.47464
5 -2.26994 -4.455
-5 -2.26994 -4.455
5 -2.30873 -4.43502
-5 -2.30873 -4.43502
5 -2.34734 -4.41471
-5 -2.34734 -4.41471
5 -2.38578 -4.39406
-5 -2.38578 -4.39406
5 -2.42403 -4.37307
-5 -2.42403 -4.37307
5 -2.4621 -4.35175
-5 -2.4621 -4.35175
5 -2.49998 -4.3301
-5 -2.49998 -4.3301
5 -2.53767 -4.30812
-5 -2.53767 -4.30812
5 -2.57517 -4.28581
-5 -2.57517 -4.28581
5 -2.61247 -4.26317
-5 -2.61247 -4.26317
5 -2.64958 -4.24021
-5 -2.64958 -4.24021
5 -2.68648 -4.21693
-5 -2.68648 -4.21693
5 -2.72318 -4.19332
-5 -2.72318 -4.19332
5 -2.75967 -4.1694
-5 -2.75967 -4.1694
5 -2.79594 -4.14516
-5 -2.79594 -4.14516
5 -2.83201 -4.1206
-5 -2.83201 -4.1206
5 -2.86786 -4.09573
-5 -2.86786 -4.09573
5 -2.90349 -4.07055
-5 -2.90349 -4.07055
5 -2.93891 -4.04506
-5 -2.93891 -4.04506
5 -2.97409 -4.01926
-5 -2.97409 -4.01926
5 -3.00905 -3.99315
-5 -3.00905 -3.99315
5 -3.04379 -3.96674
-5 -3.04379 -3.96674
5 -3.07829 -3.94003
-5 -3.07829 -3.94003
5 -3.11255 -3.91301
-5 -3.11255 -3.91301
5 -3.14658 -3.8857
-5 -3.14658 -3.8857
5 -3.18037 -3.8581
-5 -3.18037 -3.8581
5 -3.21391 -3.8302
-5 -3.21391 -3.8302
5 -3.24722 -3.802
-5 -3.24722 -3.802
5 -3.28027 -3.77352
-5 -3.28027 -3.77352
5 -3.31308 -3.74475
-5 -3.31308 -3.74475
5 -3.34563 -3.7157
-5 -3.34563 -3.7157
5 -3.37793 -3.68636
-5 -3.37793 -3.68636
5 -3.40997 -3.65674
-5 -3.40997 -3.65674
5 -3.44175 -3.62685
-5 -3.44175 -3.62685
5 -3.47327 -3.59667
-5 -3.47327 -3.59667
5 -3.50452 -3.56623
-5 -3.50452 -3.56623
5 -3.53551 -3.53551
-5 -3.53551 -3.53551
5 -3.56623 -3.50452
-5 -3.56623 -3.50452
5 -3.59667 -3.47327
-5 -3.59667 -3.47327
5 -3.62684 -3.44175
-5 -3.62684 -3.44175
5 -3.65674 -3.40997
-5 -3.65674 -3.40997
5 -3.68636 -3.37793
-5 -3.68636 -3.37793
5 -3.7157 -3.34563
-5 -3.7157 -3.34563
5 -3.74475 -3.31308
-5 -3.74475 -3.31308
5 -3.77352 -3.28027
-5 -3.77352 -3.28027
5 -3.802 -3.24722
-5 -3.802 -3.24722
5 -3.83019 -3.21391
-5 -3.83019 -3.21391
5 -3.85809 -3.18037
-5 -3.85809 -3.18037
5 -3.8857 -3.14658
-5 -3.8857 -3.14658
5 -3.91301 -3.11255
-5 -3.91301 -3.11255
5 -3.94002 -3.07828
-5 -3.94002 -3.07828
5 -3.96674 -3.04379
-5 -3.96674 -3.04379
5 -3.99315 -3.00905
-5 -3.99315 -3.00905
5 -4.01925 -2.97409
-5 -4.01925 -2.97409
5 -4.04505 -2.9389
-5 -4.04505 -2.9389
5 -4.07055 -2.90349
-5 -4.07055 -2.90349
5 -4.09573 -2.86786
-5 -4.09573 -2.86786
5 -4.1206 -2.83201
-5 -4.1206 -2.83201
5 -4.14516 -2.79594
-5 -4.14516 -2.79594
5 -4.1694 -2.75966
-5 -4.1694 -2.75966
5 -4.19332 -2.72317
-5 -4.19332 -2.72317
5 -4.21692 -2.68648
-5 -4.21692 -2.68648
5 -4.24021 -2.64958
-5 -4.24021 -2.64958
5 -4.26317 -2.61247
-5 -4.26317 -2.61247
5 -4.2858 -2.57517
-5 -4.2858 -2.57517
5 -4.30811 -2.53767
-5 -4.30811 -2.53767
5 -4.33009 -2.49998
-5 -4.33009 -2.49998
5 -4.35174 -2.4621
-5 -4.35174 -2.4621
5 -4.37306 -2.42403
-5 -4.37306 -2.42403
5 -4.39405 -2.38578
-5 -4.39405 -2.38578
5 -4.4147 -2.34734
-5 -4.4147 -2.34734
5 -4.43502 -2.30873
-5 -4.43502 -2.30873
5 -4.455 -2.26994
-5 -4.455 -2.26994
5 -4.47464 -2.23097
-5 -4.47464 -2.23097
5 -4.49393 -2.19184
-5 -4.49393 -2.19184
5 -4.51289 -2.15254
-5 -4.51289 -2.15254
5 -4.5315 -2.11308
-5 -4.5315 -2.11308
5 -4.54977 -2.07345
-5 -4.54977 -2.07345
5 -4.56769 -2.03367
-5 -4.56769 -2.03367
5 -4.58526 -1.99373
-5 -4.58526 -1.99373
5 -4.60249 -1.95364
-5 -4.60249 -1.95364
5 -4.61936 -1.9134
-5 -4.61936 -1.9134
5 -4.63588 -1.87302
-5 -4.63588 -1.87302
5 -4.65205 -1.83249
-5 -4.65205 -1.83249
5 -4.66787 -1.79183
-5 -4.66787 -1.79183
5 -4.68332 -1.75102
-5 -4.68332 -1.75102
5 -4.69843 -1.71009
-5 -4.69843 -1.71009
5 -4.71317 -1.66902
-5 -4.71317 -1.66902
5 -4.72756 -1.62783
-5 -4.72756 -1.62783
5 -4.74158 -1.58651
-5 -4.74158 -1.58651
5 -4.75524 -1.54507
-5 -4.75524 -1.54507
5 -4.76855 -1.50352
-5 -4.76855 -1.50352
5 -4.78149 -1.46185
-5 -4.78149 -1.46185
5 -4.79406 -1.42007
-5 -4.79406 -1.42007
5 -4.80627 -1.37818
-5 -4.80627 -1.37818
5 -4.81811 -1.33618
-5 -4.81811 -1.33618
5 -4.82959 -1.29409
-5 -4.82959 -1.29409
5 -4.8407 -1.25189
-5 -4.8407 -1.25189
5 -4.85144 -1.2096
-5 -4.85144 -1.2096
5 -4.86181 -1.16722
-5 -4.86181 -1.16722
5 -4.87181 -1.12475
-5 -4.87181 -1.12475
5 -4.88144 -1.08219
-5 -4.88144 -1.08219
5 -4.8907 -1.03955
-5 -4.8907 -1.03955
5 -4.89958 -0.996833
-5 -4.89958 -0.996833
5 -4.9081 -0.954038
-5 -4.9081 -0.954038
5 -4.91623 -0.911171
-5 -4.91623 -0.911171
5 -4.924 -0.868235
-5 -4.924 -0.868235
5 -4.93139 -0.825232
-5 -4.93139 -0.825232
5 -4.9384 -0.782167
-5 -4.9384 -0.782167
5 -4.94504 -0.739042
-5 -4.94504 -0.739042
5 -4.9513 -0.695861
-5 -4.9513 -0.695861
5 -4.95718 -0.652627
-5 -4.95718 -0.652627
5 -4.96269 -0.609343
-5 -4.96269 -0.609343
5 -4.96782 -0.566012
-5 -4.96782 -0.566012
5 -4.97257 -0.522639
-5 -4.97257 -0.522639
5 -4.97694 -0.479226
-5 -4.97694 -0.479226
5 -4.98093 -0.435776
-5 -4.98093 -0.435776
5 -4.98455 -0.392293
-5 -4.98455 -0.392293
5 -4.98778 -0.34878
-5 -4.98778 -0.34878
5 -4.99063 -0.305241
-5 -4.99063 -0.305241
5 -4.99311 -0.261679
-5 -4.99311 -0.261679
5 -4.9952 -0.218096
-5 -4.9952 -0.218096
5 -4.99691 -0.174497
-5 -4.99691 -0.174497
5 -4.99825 -0.130885
-5 -4.99825 -0.130885
5 -4.9992 -0.0872622
-5 -4.9992 -0.0872622
5 -4.99977 -0.0436332
-5 -4.99977 -0.0436332
5 -4.99996 -8.42847e-07
-5 -4.99996 -8.42847e-07
5 -4.99977 0.0436315
-5 -4.99977 0.0436315
5 -4.9992 0.0872605
-5 -4.9992 0.0872605
5 -4.99825 0.130883
-5 -4.99825 0.130883
5 -4.99691 0.174495
-5 -4.99691 0.174495
5 -4.9952 0.218094
-5 -4.9952 0.218094
5 -4.99311 0.261677
-5 -4.99311 0.261677
5 -4.99063 0.305239
-5 -4.99063 0.305239
5 -4.98778 0.348779
-5 -4.98778 0.348779
5 -4.98455 0.392291
-5 -4.98455 0.392291
5 -4.98093 0.435774
-5 -4.98093 0.435774
5 -4.97694 0.479224
-5 -4.97694 0.479224
5 -4.97257 0.522637
-5 -4.97257 0.522637
5 -4.96782 0.566011
-5 -4.96782 0.566011
5 -4.96269 0.609341
-5 -4.96269 0.609341
5 -4.95718 0.652625
-5 -4.95718 0.652625
5 -4.9513 0.695859
-5 -4.9513 0.695859
5 -4.94504 0.73904
-5 -4.94504 0.73904
5 -4.9384 0.782165
-5 -4.9384 0.782165
5 -4.93139 0.82523
-5 -4.93139 0.82523
5 -4.924 0.868233
-5 -4.924 0.868233
5 -4.91623 0.911169
-5 -4.91623 0.911169
5 -4.90809 0.954036
-5 -4.90809 0.954036
5 -4.89958 0.99683
-5 -4.89958 0.99683
5 -4.8907 1.03955
-5 -4.8907 1.03955
5 -4.88144 1.08219
-5 -4.88144 1.08219
5 -4.87181 1.12474
-5 -4.87181 1.12474
5 -4.86181 1.16722
-5 -4.86181 1.16722
5 -4.85144 1.2096
-5 -4.85144 1.2096
5 -4.8407 1.25189
-5 -4.8407 1.25189
5 -4.82959 1.29408
-5 -4.82959 1.29408
5 -4.81811 1.33618
-5 -4.81811 1.33618
5 -4.80627 1.37817
-5 -4.80627 1.37817
5 -4.79406 1.42006
-5 -4.79406 1.42006
5 -4.78148 1.46184
-5 -4.78148 1.46184
5 -4.76854 1.50352
-5 -4.76854 1.50352
5 -4.75524 1.54507
-5 -4.75524 1.54507
5 -4.74158 1.58651
-5 -4.74158 1.58651
5 -4.72755 1.62783
-5 -4.72755 1.62783
5 -4.71317 1.66902
-5 -4.71317 1.66902
5 -4.69842 1.71008
-5 -4.69842 1.71008
5 -4.68332 1.75102
-5 -4.68332 1.75102
5 -4.66786 1.79182
-5 -4.66786 1.79182
5 -4.65205 1.83249
-5 -4.65205 1.83249
5 -4.63588 1.87302
-5 -4.63588 1.87302
5 -4.61936 1.9134
-5 -4.61936 1.9134
5 -4.60248 1.95364
-5 -4.60248 1.95364
5 -4.58526 1.99373
-5 -4.58526 1.99373
5 -4.56769 2.03366
-5 -4.56769 2.03366
5 -4.54977 2.07345
-5 -4.54977 2.07345
5 -4.5315 2.11307
-5 -4.5315 2.11307
5 -4.51289 2.15254
-5 -4.51289 2.15254
5 -4.49393 2.19184
-5 -4.49393 2.19184
5 -4.47463 2.23097
-5 -4.47463 2.23097
5 -4.45499 2.26993
-5 -4.45499 2.26993
5 -4.43502 2.30872
-5 -4.43502 2.30872
5 -4.4147 2.34734
-5 -4.4147 2.34734
5 -4.39405 2.38577
-5 -4.39405 2.38577
5 -4.37306 2.42403
-5 -4.37306 2.42403
5 -4.35174 2.46209
-5 -4.35174 2.46209
5 -4.33009 2.49998
-5 -4.33009 2.49998
5 -4.30811 2.53767
-5 -4.30811 2.53767
5 -4.2858 2.57517
-5 -4.2858 2.57517
5 -4.26316 2.61247
-5 -4.26316 2.61247
5 -4.2402 2.64957
-5 -4.2402 2.64957
5 -4.21692 2.68647
-5 -4.21692 2.68647
5 -4.19332 2.72317
-5 -4.19332 2.72317
5 -4.16939 2.75966
-5 -4.16939 2.75966
5 -4.14515 2.79594
-5 -4.14515 2.79594
5 -4.12059 2.832
-5 -4.12059 2.832
5 -4.09572 2.86786
-5 -4.09572 2.86786
5 -4.07054 2.90349
-5 -4.07054 2.90349
5 -4.04505 2.9389
-5 -4.04505 2.9389
5 -4.01925 2.97409
-5 -4.01925 2.97409
5 -3.99314 3.00905
-5 -3.99314 3.00905
5 -3.96673 3.04378
-5 -3.96673 3.04378
5 -3.94002 3.07828
-5 -3.94002 3.07828
5 -3.91301 3.11254
-5 -3.91301 3.11254
5 -3.88569 3.14657
-5 -3.88569 3.14657
5 -3.85809 3.18036
-5 -3.85809 3.18036
5 -3.83019 3.21391
-5 -3.83019 3.21391
5 -3.802 3.24721
-5 -3.802 3.24721
5 -3.77351 3.28026
-5 -3.77351 3.28026
5 -3.74475 3.31307
-5 -3.74475 3.31307
5 -3.71569 3.34562
-5 -3.71569 3.34562
5 -3.68635 3.37792
-5 -3.68635 3.37792
5 -3.65674 3.40996
-5 -3.65674 3.40996
5 -3.62684 3.44174
-5 -3.62684 3.44174
5 -3.59667 3.47326
-5 -3.59667 3.47326
5 -3.56622 3.50451
-5 -3.56622 3.50451
5 -3.5355 3.5355
-5 -3.5355 3.5355
5 -3.50451 3.56622
-5 -3.50451 3.56622
5 -3.47326 3.59666
-5 -3.47326 3.59666
5 -3.44174 3.62684
-5 -3.44174 3.62684
5 -3.40996 3.65673
-5 -3.40996 3.65673
5 -3.37792 3.68635
-5 -3.37792 3.68635
5 -3.34562 3.71569
-5 -3.34562 3.71569
5 -3.31307 3.74474
-5 -3.31307 3.74474
5 -3.28027 3.77351
-5 -3.28027 3.77351
5 -3.24721 3.80199
-5 -3.24721 3.80199
5 -3.21391 3.83018
-5 -3.21391 3.83018
5 -3.18036 3.85809
-5 -3.18036 3.85809
5 -3.14657 3.88569
-5 -3.14657 3.88569
5 -3.11255 3.913
-5 -3.11255 3.913
5 -3.07828 3.94002
-5 -3.07828 3.94002
5 -3.04378 3.96673
-5 -3.04378 3.96673
5 -3.00905 3.99314
-5 -3.00905 3.99314
5 -2.97409 4.01925
-5 -2.97409 4.01925
5 -2.9389 4.04504
-5 -2.9389 4.04504
5 -2.90349 4.07054
-5 -2.90349 4.07054
5 -2.86786 4.09572
-5 -2.86786 4.09572
5 -2.83201 4.12059
-5 -2.83201 4.12059
5 -2.79594 4.14515
-5 -2.79594 4.14515
5 -2.75966 4.16939
-5 -2.75966 4.16939
5 -2.72317 4.19331
-5 -2.72317 4.19331
5 -2.68647 4.21692
-5 -2.68647 4.21692
5 -2.64957 4.2402
-5 -2.64957 4.2402
5 -2.61247 4.26316
-5 -2.61247 4.26316
5 -2.57517 4.28579
-5 -2.57517 4.28579
5 -2.53767 4.3081
-5 -2.53767 4.3081
5 -2.49998 4.33008
-5 -2.49998 4.33008
5 -2.4621 4.35173
-5 -2.4621 4.35173
5 -2.42403 4.37305
-5 -2.42403 4.37305
5 -2.38577 4.39404
-5 -2.38577 4.39404
5 -2.34734 4.41469
-5 -2.34734 4.41469
5 -2.30872 4.43501
-5 -2.30872 4.43501
5 -2.26993 4.45499
-5 -2.26993 4.45499
5 -2.23097 4.47463
-5 -2.23097 4.47463
5 -2.19184 4.49393
-5 -2.19184 4.49393
5 -2.15254 4.51288
-5 -2.15254 4.51288
5 -2.11307 4.53149
-5 -2.11307 4.53149
5 -2.07345 4.54976
-5 -2.07345 4.54976
5 -2.03366 4.56768
-5 -2.03366 4.56768
5 -1.99373 4.58525
-5 -1.99373 4.58525
5 -1.95364 4.60248
-5 -1.95364 4.60248
5 -1.9134 4.61935
-5 -1.9134 4.61935
5 -1.87302 4.63587
-5 -1.87302 4.63587
5 -1.83249 4.65204
-5 -1.83249 4.65204
5 -1.79182 4.66786
-5 -1.79182 4.66786
5 -1.75102 4.68331
-5 -1.75102 4.68331
5 -1.71009 4.69842
-5 -1.71009 4.69842
5 -1.66902 4.71316
-5 -1.66902 4.71316
5 -1.62783 4.72755
-5 -1.62783 4.72755
5 -1.58651 4.74157
-5 -1.58651 4.74157
5 -1.54507 4.75523
-5 -1.54507 4.75523
5 -1.50352 4.76854
-5 -1.50352 4.76854
5 -1.46185 4.78148
-5 -1.46185 4.78148
5 -1.42006 4.79405
-5 -1.42006 4.79405
5 -1.37817 4.80626
-5 -1.37817 4.80626
5 -1.33618 4.8181
-5 -1.33618 4.8181
5 -1.29408 4.82958
-5 -1.29408 4.82958
5 -1.25189 4.84069
-5 -1.25189 4.84069
5 -1.2096 4.85143
-5 -1.2096 4.85143
5 -1.16722 4.8618
-5 -1.16722 4.8618
5 -1.12475 4.8718
-5 -1.12475 4.8718
5 -1.08219 4.88143
-5 -1.08219 4.88143
5 -1.03955 4.89069
-5 -1.03955 4.89069
5 -0.996831 4.89957
-5 -0.996831 4.89957
5 -0.954036 4.90809
-5 -0.954036 4.90809
5 -0.91117 4.91622
-5 -0.91117 4.91622
5 -0.868233 4.92399
-5 -0.868233 4.92399
5 -0.825231 4.93138
-5 -0.825231 4.93138
5 -0.782165 4.93839
-5 -0.782165 4.93839
5 -0.73904 4.94503
-5 -0.73904 4.94503
5 -0.695859 4.95129
-5 -0.695859 4.95129
5 -0.652625 4.95717
-5 -0.652625 4.95717
5 -0.609341 4.96268
-5 -0.609341 4.96268
5 -0.566011 4.96781
-5 -0.566011 4.96781
5 -0.522638 4.97256
-5 -0.522638 4.97256
5 -0.479225 4.97693
-5 -0.479225 4.97693
5 -0.435775 4.98092
-5 -0.435775 4.98092
5 -0.392292 4.98454
-5 -0.392292 4.98454
5 -0.34878 4.98777
-5 -0.34878 4.98777
5 -0.30524 4.99062
-5 -0.30524 4.99062
5 -0.261678 4.9931
-5 -0.261678 4.9931
5 -0.218096 4.99519
-5 -0.218096 4.99519
5 -0.174497 4.9969
-5 -0.174497 4.9969
5 -0.130884 4.99824
-5 -0.130884 4.99824
5 -0.0872619 4.99919
-5 -0.0872619 4.99919
5 -0.043633 4.99976
-5 -0.043633 4.99976
5 -7.96281e-07 4.99995
-5 -7.96281e-07 4.99995
5 0.0436314 4.99976
-5 0.0436314 4.99976
5 0.0872603 4.99919
-5 0.0872603 4.99919
5 0.130883 4.99824
-5 0.130883 4.99824
5 0.174495 4.9969
-5 0.174495 4.9969
5 0.218094 4.99519
-5 0.218094 4.99519
5 0.261676 4.9931
-5 0.261676 4.9931
5 0.305239 4.99062
-5 0.305239 4.99062
5 0.348778 4.98777
-5 0.348778 4.98777
5 0.392291 4.98454
-5 0.392291 4.98454
5 0.435773 4.98092
-5 0.435773 4.98092
5 0.479223 4.97693
-5 0.479223 4.97693
5 0.522636 4.97256
-5 0.522636 4.97256
5 0.566009 4.96781
-5 0.566009 4.96781
5 0.60934 4.96268
-5 0.60934 4.96268
5 0.652623 4.95717
-5 0.652623 4.95717
5 0.695857 4.95129
-5 0.695857 4.95129
5 0.739039 4.94503
-5 0.739039 4.94503
5 0.782163 4.93839
-5 0.782163 4.93839
5 0.825229 4.93138
-5 0.825229 4.93138
5 0.868231 4.92399
-5 0.868231 4.92399
5 0.911167 4.91622
-5 0.911167 4.91622
5 0.954034 4.90808
-5 0.954034 4.90808
5 0.996828 4.89957
-5 0.996828 4.89957
5 1.03955 4.89069
-5 1.03955 4.89069
5 1.08219 4.88143
-5 1.08219 4.88143
5 1.12474 4.8718
-5 1.12474 4.8718
5 1.16721 4.8618
-5 1.16721 4.8618
5 1.2096 4.85143
-5 1.2096 4.85143
5 1.25189 4.84069
-5 1.25189 4.84069
5 1.29408 4.82958
-5 1.29408 4.82958
5 1.33618 4.8181
-5 1.33618 4.8181
5 1.37817 4.80626
-5 1.37817 4.80626
5 1.42006 4.79405
-5 1.42006 4.79405
5 1.46184 4.78147
-5 1.46184 4.78147
5 1.50351 4.76853
-5 1.50351 4.76853
5 1.54507 4.75523
-5 1.54507 4.75523
5 1.58651 4.74157
-5 1.58651 4.74157
5 1.62782 4.72754
-5 1.62782 4.72754
5 1.66902 4.71316
-5 1.66902 4.71316
5 1.71008 4.69841
-5 1.71008 4.69841
5 1.75102 4.68331
-5 1.75102 4.68331
5 1.79182 4.66785
-5 1.79182 4.66785
5 1.83249 4.65204
-5 1.83249 4.65204
5 1.87301 4.63587
-5 1.87301 4.63587
5 1.9134 4.61935
-5 1.9134 4.61935
5 1.95363 4.60248
-5 1.95363 4.60248
5 1.99372 4.58525
-5 1.99372 4.58525
5 2.03366 4.56768
-5 2.03366 4.56768
5 2.07344 4.54976
-5 2.07344 4.54976
5 2.11307 4.53149
-5 2.11307 4.53149
5 2.15253 4.51288
-5 2.15253 4.51288
5 2.19183 4.49392
-5 2.19183 4.49392
5 2.23096 4.47462
-5 2.23096 4.47462
5 2.26993 4.45499
-5 2.26993 4.45499
5 2.30872 4.43501
-5 2.30872 4.43501
5 2.34733 4.41469
-5 2.34733 4.41469
5 2.38577 4.39404
-5 2.38577 4.39404
5 2.42402 4.37305
-5 2.42402 4.37305
5 2.46209 4.35173
-5 2.46209 4.35173
5 2.49997 4.33008
-5 2.49997 4.33008
5 2.53766 4.3081
-5 2.53766 4.3081
5 2.57516 4.28579
-5 2.57516 4.28579
5 2.61246 4.26315
-5 2.61246 4.26315
5 2.64957 4.24019
-5 2.64957 4.24019
5 2.68647 4.21691
-5 2.68647 4.21691
5 2.72316 4.19331
-5 2.72316 4.19331
5 2.75965 4.16938
-5 2.75965 4.16938
5 2.79593 4.14514
-5 2.79593 4.14514
5 2.832 4.12059
-5 2.832 4.12059
5 2.86785 4.09572
-5 2.86785 4.09572
5 2.90348 4.07053
-5 2.90348 4.07053
5 2.93889 4.04504
-5 2.93889 4.04504
5 2.97408 4.01924
-5 2.97408 4.01924
5 3.00904 3.99313
-5 3.00904 3.99313
5 3.04377 3.96672
-5 3.04377 3.96672
5 3.07827 3.94001
-5 3.07827 3.94001
5 3.11254 3.913
-5 3.11254 3.913
5 3.14657 3.88569
-5 3.14657 3.88569
5 3.18035 3.85808
-5 3.18035 3.85808
5 3.2139 3.83018
-5 3.2139 3.83018
5 3.2472 3.80199
-5 3.2472 3.80199
5 3.28026 3.77351
-5 3.28026 3.77351
5 3.31306 3.74474
-5 3.31306 3.74474
5 3.34561 3.71568
-5 3.34561 3.71568
5 3.37791 3.68635
-5 3.37791 3.68635
5 3.40995 3.65673
-5 3.40995 3.65673
5 3.44173 3.62683
-5 3.44173 3.62683
5 3.47325 3.59666
-5 3.47325 3.59666
5 3.50451 3.56621
-5 3.50451 3.56621
5 3.53549 3.53549
-5 3.53549 3.53549
5 3.56621 3.50451
-5 3.56621 3.50451
5 3.59666 3.47325
-5 3.59666 3.47325
5 3.62683 3.44173
-5 3.62683 3.44173
5 3.65673 3.40995
-5 3.65673 3.40995
5 3.68634 3.37791
-5 3.68634 3.37791
5 3.71568 3.34561
-5 3.71568 3.34561
5 3.74473 3.31306
-5 3.74473 3.31306
5 3.7735 3.28026
-5 3.7735 3.28026
5 3.80198 3.2472
-5 3.80198 3.2472
5 3.83018 3.2139
-5 3.83018 3.2139
