ply
format ascii 1.0
element vertex 400
property float x
property float y
property float z
end_header
5 -0.087262 -4.99924
-5 -0.087262 -4.99924
5 0.087262 4.99924
-5 0.087262 4.99924
5 0.174497 4.99695
-5 0.174497 4.99695
5 0.523492 14.9909
-5 0.523492 14.9909
5 0.785039 14.9794
-5 0.785039 14.9794
5 1.3084 24.9657
-5 1.3084 24.9657
5 1.74391 24.9391
-5 1.74391 24.9391
5 2.44148 34.9147
-5 2.44148 34.9147
5 3.05045 34.8668
-5 3.05045 34.8668
5 3.92201 44.8288
-5 3.92201 44.8288
5 4.70378 44.7535
-5 4.70378 44.7535
5 5.74907 54.6987
-5 5.74907 54.6987
5 6.70281 54.59
-5 6.70281 54.59
5 7.92151 64.5155
-5 7.92151 64.5155
5 9.04625 64.3674
-5 9.04625 64.3674
5 10.438 74.2701
-5 10.438 74.2701
5 11.7326 74.0766
-5 11.7326 74.0766
5 13.2969 83.9535
-5 13.2969 83.9535
5 14.7601 83.7087
-5 14.7601 83.7087
5 16.4966 93.5568
-5 16.4966 93.5568
5 18.1269 93.2546
-5 18.1269 93.2546
5 20.0349 103.071
-5 20.0349 103.071
5 21.8307 102.706
-5 21.8307 102.706
5 23.9098 112.487
-5 23.9098 112.487
5 25.8694 112.053
-5 25.8694 112.053
5 28.1189 121.796
-5 28.1189 121.796
5 30.2402 121.287
-5 30.2402 121.287
5 32.6595 130.99
-5 32.6595 130.99
5 34.9406 130.4
-5 34.9406 130.4
5 37.5288 140.059
-5 37.5288 140.059
5 39.9674 139.383
-5 39.9674 139.383
5 42.7238 148.996
-5 42.7238 148.996
5 45.3176 148.227
-5 45.3176 148.227
5 48.2413 157.79
-5 48.2413 157.79
5 50.9878 156.924
-5 50.9878 156.924
5 54.078 166.435
-5 54.078 166.435
5 56.9744 165.466
-5 56.9744 165.466
5 60.2301 174.921
-5 60.2301 174.921
5 63.2737 173.843
-5 63.2737 173.843
5 66.6939 183.24
-5 66.6939 183.24
5 69.8818 182.048
-5 69.8818 182.048
5 73.4654 191.384
-5 73.4654 191.384
5 76.7944 190.073
-5 76.7944 190.073
5 80.5404 199.345
-5 80.5404 199.345
5 84.0072 197.909
-5 84.0072 197.909
5 87.9145 207.114
-5 87.9145 207.114
5 91.5158 205.548
-5 91.5158 205.548
5 95.5831 214.683
-5 95.5831 214.683
5 99.3153 212.982
-5 99.3153 212.982
5 103.542 222.046
-5 103.542 222.046
5 107.401 220.205
-5 107.401 220.205
5 111.785 229.193
-5 111.785 229.193
5 115.768 227.207
-5 115.768 227.207
5 120.308 236.117
-5 120.308 236.117
5 124.41 233.981
-5 124.41 233.981
5 129.105 242.811
-5 129.105 242.811
5 133.323 240.521
-5 133.323 240.521
5 138.171 249.267
-5 138.171 249.267
5 142.5 246.817
-5 142.5 246.817
5 147.5 255.478
-5 147.5 255.478
5 151.936 252.865
-5 151.936 252.865
5 157.087 261.436
-5 157.087 261.436
5 161.625 258.655
-5 161.625 258.655
5 166.925 267.135
-5 166.925 267.135
5 171.561 264.181
-5 171.561 264.181
5 177.008 272.568
-5 177.008 272.568
5 181.738 269.437
-5 181.738 269.437
5 187.33 277.728
-5 187.33 277.728
5 192.148 274.416
-5 192.148 274.416
5 197.884 282.608
-5 197.884 282.608
5 202.786 279.111
-5 202.786 279.111
5 208.664 287.201
-5 208.664 287.201
5 213.644 283.516
-5 213.644 283.516
5 219.663 291.502
-5 219.663 291.502
5 224.717 287.624
-5 224.717 287.624
5 230.873 295.504
-5 230.873 295.504
5 235.995 291.43
-5 235.995 291.43
5 242.288 299.201
-5 242.288 299.201
5 247.473 294.927
-5 247.473 294.927
5 253.901 302.588
-5 253.901 302.588
5 259.143 298.111
-5 259.143 298.111
5 265.704 305.658
-5 265.704 305.658
5 270.998 300.974
-5 270.998 300.974
5 277.689 308.405
-5 277.689 308.405
5 283.03 303.512
-5 283.03 303.512
5 289.849 310.826
-5 289.849 310.826
5 295.23 305.72
-5 295.23 305.72
5 302.177 312.913
-5 302.177 312.913
5 307.592 307.592
-5 307.592 307.592
5 314.663 314.663
-5 314.663 314.663
5 320.106 309.123
-5 320.106 309.123
5 327.3 316.07
-5 327.3 316.07
5 332.766 310.31
-5 332.766 310.31
5 340.08 317.13
-5 340.08 317.13
5 345.563 311.146
-5 345.563 311.146
5 352.994 317.837
-5 352.994 317.837
5 358.487 311.628
-5 358.487 311.628
5 366.034 318.189
-5 366.034 318.189
5 371.532 311.752
-5 371.532 311.752
5 379.192 318.18
-5 379.192 318.18
5 384.688 311.514
-5 384.688 311.514
5 392.459 317.807
-5 392.459 317.807
5 397.946 310.909
-5 397.946 310.909
5 405.826 317.066
-5 405.826 317.066
5 411.298 309.935
-5 411.298 309.935
5 419.284 315.953
-5 419.284 315.953
5 424.734 308.588
-5 424.734 308.588
5 432.824 314.465
-5 432.824 314.465
5 438.247 306.864
-5 438.247 306.864
5 446.438 312.599
-5 446.438 312.599
5 451.826 304.76
-5 451.826 304.76
5 460.116 310.352
-5 460.116 310.352
5 465.462 302.275
-5 465.462 302.275
5 473.849 307.721
-5 473.849 307.721
5 479.148 299.405
-5 479.148 299.405
5 487.628 304.704
-5 487.628 304.704
5 492.872 296.147
-5 492.872 296.147
5 501.443 301.298
-5 501.443 301.298
5 506.625 292.5
-5 506.625 292.5
5 515.286 297.5
-5 515.286 297.5
5 520.399 288.462
-5 520.399 288.462
5 529.145 293.31
-5 529.145 293.31
5 534.184 284.031
-5 534.184 284.031
5 543.013 288.725
-5 543.013 288.725
5 547.969 279.204
-5 547.969 279.204
5 556.88 283.744
-5 556.88 283.744
5 561.747 273.982
-5 561.747 273.982
5 570.735 278.366
-5 570.735 278.366
5 575.506 268.363
-5 575.506 268.363
5 584.569 272.589
-5 584.569 272.589
5 589.237 262.345
-5 589.237 262.345
5 598.373 266.413
-5 598.373 266.413
5 602.931 255.929
-5 602.931 255.929
5 612.136 259.836
-5 612.136 259.836
5 616.578 249.114
-5 616.578 249.114
5 625.85 252.86
-5 625.85 252.86
5 630.167 241.899
-5 630.167 241.899
5 639.503 245.482
-5 639.503 245.482
5 643.69 234.284
-5 643.69 234.284
5 653.087 237.704
-5 653.087 237.704
5 657.136 226.27
-5 657.136 226.27
5 666.591 229.526
-5 666.591 229.526
5 670.495 217.857
-5 670.495 217.857
5 680.006 220.947
-5 680.006 220.947
5 683.759 209.046
-5 683.759 209.046
5 693.322 211.97
-5 693.322 211.97
5 696.915 199.837
-5 696.915 199.837
5 706.528 202.594
-5 706.528 202.594
5 709.956 190.232
-5 709.956 190.232
5 719.615 192.82
-5 719.615 192.82
5 722.871 180.232
-5 722.871 180.232
5 732.574 182.651
-5 732.574 182.651
5 735.65 169.838
-5 735.65 169.838
5 745.394 172.088
-5 745.394 172.088
5 748.284 159.053
-5 748.284 159.053
5 758.065 161.132
-5 758.065 161.132
5 760.762 147.877
-5 760.762 147.877
5 770.578 149.785
-5 770.578 149.785
5 773.075 136.314
-5 773.075 136.314
5 782.923 138.051
-5 782.923 138.051
5 785.213 124.366
-5 785.213 124.366
5 795.09 125.93
-5 795.09 125.93
5 797.167 112.035
-5 797.167 112.035
5 807.069 113.426
-5 807.069 113.426
5 808.926 99.3237
-5 808.926 99.3237
5 818.851 100.542
-5 818.851 100.542
5 820.481 86.2362
-5 820.481 86.2362
5 830.427 87.2815
-5 830.427 87.2815
5 831.823 72.7752
-5 831.823 72.7752
5 841.785 73.6468
-5 841.785 73.6468
5 842.943 58.9444
-5 842.943 58.9444
5 852.918 59.642
-5 852.918 59.642
5 853.829 44.7474
-5 853.829 44.7474
5 863.816 45.2708
-5 863.816 45.2708
5 864.474 30.1882
-5 864.474 30.1882
5 874.468 30.5372
-5 874.468 30.5372
5 874.868 15.271
-5 874.868 15.271
5 884.866 15.4455
-5 884.866 15.4455
5 885.001 0.000102203
-5 885.001 0.000102203
5 895.001 0.000103358
-5 895.001 0.000103358
5 894.865 -15.6198
-5 894.865 -15.6198
5 904.863 -15.7943
-5 904.863 -15.7943
5 904.45 -31.584
-5 904.45 -31.584
5 914.444 -31.933
-5 914.444 -31.933
5 913.747 -47.8874
-5 913.747 -47.8874
5 923.733 -48.4107
-5 923.733 -48.4107
5 922.748 -64.5247
-5 922.748 -64.5247
5 932.724 -65.2223
-5 932.724 -65.2223
5 931.443 -81.4906
-5 931.443 -81.4906
5 941.405 -82.3622
-5 941.405 -82.3622
5 939.824 -98.7794
-5 939.824 -98.7794
5 949.77 -99.8247
-5 949.77 -99.8247
5 947.883 -116.385
-5 947.883 -116.385
5 957.808 -117.604
-5 957.808 -117.604
5 955.61 -134.302
-5 955.61 -134.302
5 965.513 -135.694
-5 965.513 -135.694
5 962.997 -152.524
-5 962.997 -152.524
5 972.874 -154.088
-5 972.874 -154.088
5 970.037 -171.044
-5 970.037 -171.044
5 979.885 -172.78
-5 979.885 -172.78
